<?xml version="1.0" encoding="iso-8859-1"?>
<!-- Uploaded to: SVG Repo, www.svgrepo.com, Generator: SVG Repo Mixer Tools -->
<svg version="1.1" id="Layer_1" xmlns="http://www.w3.org/2000/svg" xmlns:xlink="http://www.w3.org/1999/xlink" 
	 viewBox="0 0 507.987 507.987" xml:space="preserve">
<rect x="93.194" y="204.581" style="fill:#FFFFFF;" width="321.5" height="275.2"/>
<polygon style="fill:#FFC10D;" points="57.094,176.381 450.894,176.381 253.994,31.681 "/>
<path style="fill:#56ACE0;" d="M386.494,451.481v-218.7h-265v15.6h50.9c7.8,0,14.1,6.3,14.1,14.1s-6.3,14.1-14.1,14.1h-50.9v30.8
	h29.3c7.8,0,14.1,6.3,14.1,14.1s-6.3,14.1-14.1,14.1h-29.3v115.9"/>
<path style="fill:#FFFFFF;" d="M208.594,479.781h90.7v-78.8c0-25-20.4-45.4-45.4-45.4s-45.4,20.4-45.4,45.4v78.8H208.594z"/>
<path style="fill:#194F82;" d="M502.194,179.081l-239.8-176.3c-5-3.7-11.7-3.7-16.7,0l-239.9,176.3c-11,8.1-5.3,25.5,8.4,25.5h50.8
	v289.3c0,7.8,6.3,14.1,14.1,14.1h349.7c7.8,0,14.1-6.3,14.1-14.1v-289.3h50.9C507.494,204.581,513.194,187.181,502.194,179.081z
	 M299.394,479.781h-90.7v-78.8c0-25,20.4-45.4,45.4-45.4s45.4,20.4,45.4,45.4v78.8H299.394z M414.694,479.781h-87.2v-78.8
	c0-40.6-33-73.6-73.6-73.6s-73.6,33-73.6,73.6v78.8h-87.1v-275.2h321.5V479.781z M57.094,176.381l196.9-144.7l196.9,144.7H57.094z"
	/>
</svg>