<?xml version="1.0" encoding="utf-8"?>
<!-- Generator: Adobe Illustrator 23.0.6, SVG Export Plug-In . SVG Version: 6.00 Build 0)  -->
<svg version="1.1" id="Layer_1" xmlns="http://www.w3.org/2000/svg" xmlns:xlink="http://www.w3.org/1999/xlink" x="0px" y="0px"
	 viewBox="0 0 64 64" style="enable-background:new 0 0 64 64;" xml:space="preserve">
<style type="text/css">
	.st0{fill:#F9C995;}
	.st1{fill:#C52026;}
	.st2{fill:#DDDDDD;}
	.st3{fill:#787878;}
	.st4{fill:#FDC88D;}
	.st5{fill:#2D2D2D;}
	.st6{fill:#47C8F5;}
	.st7{fill:none;}
	.st8{fill:#BCBCBC;}
	.st9{fill:#606161;}
	.st10{fill:#F37B87;}
	.st11{fill:#FFC613;}
	.st12{fill:#FFFFFF;}
	.st13{fill:#E2A538;}
	.st14{fill:#FAE7D0;}
	.st15{fill:#F3AE3D;}
	.st16{fill:#81C341;}
	.st17{fill:none;stroke:#000000;stroke-width:2;stroke-linecap:round;stroke-linejoin:round;stroke-miterlimit:10;}
	.st18{opacity:0.3;}
	.st19{opacity:0.3;fill:#FFFFFF;}
</style>
<g id="Vector">
	<g>
		<path class="st0" d="M21.67,29.26c0,3.99-3.25,7.24-7.24,7.24c-0.5,0-0.98-0.05-1.45-0.14c-3.31-0.68-5.8-3.61-5.8-7.09
			c0-4,3.25-7.24,7.25-7.24c1.74,0,3.32,0.62,4.58,1.64C20.64,24.98,21.67,27,21.67,29.26z"/>
		<path class="st10" d="M22.91,47.85c0,0.35,0.03,0.68,0.09,1c-0.47,3.01-3.08,5.3-6.21,5.3h-5.05c-3.48,0-6.3-2.81-6.3-6.3V42.8
			c0-3.48,2.82-6.3,6.3-6.3h5.05c2.96,0,5.47,2.05,6.12,4.82c0.04,0.15,0.08,0.32,0.09,0.47c-0.06,0.32-0.09,0.65-0.09,1V47.85z"/>
		<path class="st7" d="M23.09,42.8v5.05c0,0.35-0.03,0.68-0.09,1c-0.06-0.32-0.09-0.65-0.09-1V42.8c0-0.35,0.03-0.68,0.09-1
			C23.06,42.12,23.09,42.45,23.09,42.8z"/>
		<path class="st11" d="M40.51,47.85c0,0.14,0,0.28,0.03,0.42c-0.21,3.3-2.94,5.88-6.27,5.88h-5.05c-3.14,0-5.74-2.28-6.21-5.3
			c0.06-0.32,0.09-0.65,0.09-1V42.8c0-0.35-0.03-0.68-0.09-1c0.01-0.15,0.05-0.32,0.09-0.47c0.65-2.77,3.14-4.82,6.12-4.82h5.05
			c2.94,0,5.4,2.01,6.09,4.73c0.1,0.37,0.17,0.74,0.18,1.14c-0.03,0.14-0.03,0.28-0.03,0.42V47.85z"/>
		<path class="st7" d="M23.09,42.8v5.05c0,0.35-0.03,0.68-0.09,1c-0.06-0.32-0.09-0.65-0.09-1V42.8c0-0.35,0.03-0.68,0.09-1
			C23.06,42.12,23.09,42.45,23.09,42.8z"/>
		<path class="st7" d="M40.56,42.8v5.05c0,0.14,0,0.28-0.03,0.42c-0.03-0.14-0.03-0.28-0.03-0.42V42.8c0-0.14,0-0.28,0.03-0.42
			C40.56,42.52,40.56,42.66,40.56,42.8z"/>
		<path class="st0" d="M56.75,29.26c0,3.99-3.23,7.24-7.24,7.24c-0.13,0-0.24,0-0.37-0.01l-0.01-0.01
			c-3.81-0.18-6.85-3.35-6.85-7.21c0-2.18,0.96-4.13,2.49-5.45c1.28-1.12,2.93-1.78,4.75-1.78C53.52,22.03,56.75,25.26,56.75,29.26z
			"/>
		<path class="st6" d="M58.18,42.8v5.05c0,3.49-2.82,6.3-6.31,6.3h-5.05c-3.34,0-6.07-2.58-6.27-5.88c0.03-0.14,0.03-0.28,0.03-0.42
			V42.8c0-0.14,0-0.28-0.03-0.42c0.01-0.4,0.08-0.77,0.18-1.14c0.69-2.72,3.16-4.73,6.09-4.73h5.05
			C55.35,36.5,58.18,39.32,58.18,42.8z"/>
		<path class="st7" d="M40.56,42.8v5.05c0,0.14,0,0.28-0.03,0.42c-0.03-0.14-0.03-0.28-0.03-0.42V42.8c0-0.14,0-0.28,0.03-0.42
			C40.56,42.52,40.56,42.66,40.56,42.8z"/>
		<circle class="st0" cx="40.69" cy="16.33" r="7.24"/>
		<path class="st0" d="M39.15,29.26c0,3.99-3.25,7.24-7.25,7.24h-0.01c-0.53,0-1.04-0.05-1.53-0.17c-3.26-0.71-5.7-3.61-5.7-7.07
			c0-1.98,0.78-3.76,2.07-5.07c1.32-1.33,3.16-2.17,5.17-2.17c1.77,0,3.4,0.64,4.66,1.71C38.15,25.04,39.15,27.03,39.15,29.26z"/>
		<path class="st10" d="M49.14,36.49l-0.01,0.01h-2.32c-2.94,0-5.4,2.01-6.09,4.73h-0.36c-0.69-2.72-3.16-4.73-6.09-4.73H31.9
			c4,0,7.25-3.25,7.25-7.24c0-2.23-1-4.22-2.59-5.53c0.46-0.12,0.94-0.17,1.42-0.17h5.05c0.6,0,1.18,0.09,1.73,0.24
			c-1.53,1.32-2.49,3.27-2.49,5.45c0,3.86,3.04,7.03,6.85,7.21L49.14,36.49z"/>
		<circle class="st0" cx="21.85" cy="16.42" r="7.24"/>
		<path class="st7" d="M14.44,36.5h-1.41c-0.01-0.05-0.03-0.1-0.04-0.14C13.46,36.45,13.94,36.5,14.44,36.5z"/>
		<path class="st6" d="M30.36,36.33c-0.01,0.05-0.03,0.1-0.04,0.17h-1.12c-2.98,0-5.47,2.05-6.12,4.82h-0.18
			c-0.65-2.77-3.16-4.82-6.12-4.82h-2.35c3.99,0,7.24-3.25,7.24-7.24c0-2.26-1.04-4.29-2.66-5.59c0.04-0.01,0.09-0.01,0.13-0.01
			h5.05c0.9,0,1.74,0.19,2.53,0.54c-1.28,1.31-2.07,3.09-2.07,5.07C24.66,32.73,27.1,35.63,30.36,36.33z"/>
	</g>
</g>
<g id="Line">
	<g>
		<path class="st17" d="M21.67,29.26c0,3.99-3.25,7.24-7.24,7.24c-0.5,0-0.98-0.05-1.45-0.14c-3.31-0.68-5.8-3.61-5.8-7.09
			c0-4,3.25-7.24,7.25-7.24c1.74,0,3.32,0.62,4.58,1.64C20.64,24.98,21.67,27,21.67,29.26z"/>
		<path class="st17" d="M22.91,47.85c0,0.35,0.03,0.68,0.09,1c-0.47,3.01-3.08,5.3-6.21,5.3h-5.05c-3.48,0-6.3-2.81-6.3-6.3V42.8
			c0-3.48,2.82-6.3,6.3-6.3h5.05c2.96,0,5.47,2.05,6.12,4.82c0.04,0.15,0.08,0.32,0.09,0.47c-0.06,0.32-0.09,0.65-0.09,1V47.85z"/>
		<path class="st17" d="M23.09,42.8v5.05c0,0.35-0.03,0.68-0.09,1c-0.06-0.32-0.09-0.65-0.09-1V42.8c0-0.35,0.03-0.68,0.09-1
			C23.06,42.12,23.09,42.45,23.09,42.8z"/>
		<path class="st17" d="M40.51,47.85c0,0.14,0,0.28,0.03,0.42c-0.21,3.3-2.94,5.88-6.27,5.88h-5.05c-3.14,0-5.74-2.28-6.21-5.3
			c0.06-0.32,0.09-0.65,0.09-1V42.8c0-0.35-0.03-0.68-0.09-1c0.01-0.15,0.05-0.32,0.09-0.47c0.65-2.77,3.14-4.82,6.12-4.82h5.05
			c2.94,0,5.4,2.01,6.09,4.73c0.1,0.37,0.17,0.74,0.18,1.14c-0.03,0.14-0.03,0.28-0.03,0.42V47.85z"/>
		<path class="st17" d="M23.09,42.8v5.05c0,0.35-0.03,0.68-0.09,1c-0.06-0.32-0.09-0.65-0.09-1V42.8c0-0.35,0.03-0.68,0.09-1
			C23.06,42.12,23.09,42.45,23.09,42.8z"/>
		<path class="st17" d="M40.56,42.8v5.05c0,0.14,0,0.28-0.03,0.42c-0.03-0.14-0.03-0.28-0.03-0.42V42.8c0-0.14,0-0.28,0.03-0.42
			C40.56,42.52,40.56,42.66,40.56,42.8z"/>
		<path class="st17" d="M56.75,29.26c0,3.99-3.23,7.24-7.24,7.24c-0.13,0-0.24,0-0.37-0.01l-0.01-0.01
			c-3.81-0.18-6.85-3.35-6.85-7.21c0-2.18,0.96-4.13,2.49-5.45c1.28-1.12,2.93-1.78,4.75-1.78C53.52,22.03,56.75,25.26,56.75,29.26z
			"/>
		<path class="st17" d="M58.18,42.8v5.05c0,3.49-2.82,6.3-6.31,6.3h-5.05c-3.34,0-6.07-2.58-6.27-5.88
			c0.03-0.14,0.03-0.28,0.03-0.42V42.8c0-0.14,0-0.28-0.03-0.42c0.01-0.4,0.08-0.77,0.18-1.14c0.69-2.72,3.16-4.73,6.09-4.73h5.05
			C55.35,36.5,58.18,39.32,58.18,42.8z"/>
		<path class="st17" d="M40.56,42.8v5.05c0,0.14,0,0.28-0.03,0.42c-0.03-0.14-0.03-0.28-0.03-0.42V42.8c0-0.14,0-0.28,0.03-0.42
			C40.56,42.52,40.56,42.66,40.56,42.8z"/>
		<circle class="st17" cx="40.69" cy="16.33" r="7.24"/>
		<path class="st17" d="M39.15,29.26c0,3.99-3.25,7.24-7.25,7.24h-0.01c-0.53,0-1.04-0.05-1.53-0.17c-3.26-0.71-5.7-3.61-5.7-7.07
			c0-1.98,0.78-3.76,2.07-5.07c1.32-1.33,3.16-2.17,5.17-2.17c1.77,0,3.4,0.64,4.66,1.71C38.15,25.04,39.15,27.03,39.15,29.26z"/>
		<path class="st17" d="M49.14,36.49l-0.01,0.01h-2.32c-2.94,0-5.4,2.01-6.09,4.73h-0.36c-0.69-2.72-3.16-4.73-6.09-4.73H31.9
			c4,0,7.25-3.25,7.25-7.24c0-2.23-1-4.22-2.59-5.53c0.46-0.12,0.94-0.17,1.42-0.17h5.05c0.6,0,1.18,0.09,1.73,0.24
			c-1.53,1.32-2.49,3.27-2.49,5.45c0,3.86,3.04,7.03,6.85,7.21L49.14,36.49z"/>
		<circle class="st17" cx="21.85" cy="16.42" r="7.24"/>
		<path class="st17" d="M14.44,36.5h-1.41c-0.01-0.05-0.03-0.1-0.04-0.14C13.46,36.45,13.94,36.5,14.44,36.5z"/>
		<path class="st17" d="M30.36,36.33c-0.01,0.05-0.03,0.1-0.04,0.17h-1.12c-2.98,0-5.47,2.05-6.12,4.82h-0.18
			c-0.65-2.77-3.16-4.82-6.12-4.82h-2.35c3.99,0,7.24-3.25,7.24-7.24c0-2.26-1.04-4.29-2.66-5.59c0.04-0.01,0.09-0.01,0.13-0.01
			h5.05c0.9,0,1.74,0.19,2.53,0.54c-1.28,1.31-2.07,3.09-2.07,5.07C24.66,32.73,27.1,35.63,30.36,36.33z"/>
	</g>
</g>
<g id="shadow">
	<g class="st18">
		<path d="M46.19,54.12c0.2,0.02,0.41,0.03,0.62,0.03h5.05c3.49,0,6.31-2.81,6.31-6.3V42.8c0-3.48-2.82-6.3-6.31-6.3h-2.35h-0.38
			l0.01-0.01c0.13,0.01,0.24,0.01,0.37,0.01c4,0,7.24-3.25,7.24-7.24c0-4-3.23-7.24-7.24-7.24c-1.82,0-3.46,0.67-4.75,1.78
			c-0.42-0.12-0.87-0.18-1.32-0.21C46.24,33.73,47.71,43.62,46.19,54.12z"/>
		<path d="M39.78,11.87c1.29,3.8,2.5,7.52,3.53,11.2c2.7-1.05,4.62-3.67,4.62-6.74c0-4-3.24-7.24-7.24-7.24
			c-0.56,0-1.1,0.07-1.62,0.19C39.24,10.08,39.46,10.93,39.78,11.87z"/>
	</g>
</g>
<g id="Highligth">
	<g class="st18">
		<path class="st12" d="M16.45,54.12c-0.2,0.02-0.41,0.03-0.62,0.03h-5.05c-3.49,0-6.31-2.81-6.31-6.3V42.8
			c0-3.48,2.82-6.3,6.31-6.3h2.35h0.38l-0.01-0.01c-0.13,0.01-0.24,0.01-0.37,0.01c-4,0-7.24-3.25-7.24-7.24
			c0-4,3.23-7.24,7.24-7.24c1.82,0,3.46,0.67,4.75,1.78c0.42-0.12,0.87-0.18,1.32-0.21C16.4,33.73,14.93,43.62,16.45,54.12z"/>
		<path class="st12" d="M22.87,11.87c-1.29,3.8-2.5,7.52-3.53,11.2c-2.7-1.05-4.62-3.67-4.62-6.74c0-4,3.24-7.24,7.24-7.24
			c0.56,0,1.1,0.07,1.62,0.19C23.4,10.08,23.19,10.93,22.87,11.87z"/>
	</g>
</g>
</svg>
